<mxfile host="Electron" agent="Mozilla/5.0 (Macintosh; Intel Mac OS X 10_15_7) AppleWebKit/537.36 (KHTML, like Gecko) draw.io/26.1.1 Chrome/132.0.6834.210 Electron/34.3.3 Safari/537.36" version="26.1.1">
  <diagram name="Page-1" id="ad52d381-51e7-2e0d-a935-2d0ddd2fd229">
    <mxGraphModel dx="2041" dy="1220" grid="1" gridSize="10" guides="1" tooltips="1" connect="1" arrows="1" fold="1" page="1" pageScale="1" pageWidth="1700" pageHeight="1100" background="none" math="0" shadow="0">
      <root>
        <mxCell id="0" />
        <mxCell id="1" parent="0" />
        <mxCell id="2c924340bb9dbf6c-4" value="Fundamentals of Machine Learning" style="ellipse;whiteSpace=wrap;html=1;rounded=1;shadow=1;comic=0;labelBackgroundColor=none;strokeWidth=2;fontFamily=Verdana;fontSize=12;align=center;" parent="1" vertex="1">
          <mxGeometry x="890" y="470" width="120" height="120" as="geometry" />
        </mxCell>
        <mxCell id="0uLxgeupM7HnFfJnQQ7k-1" value="" style="endArrow=classic;html=1;rounded=0;" edge="1" parent="1">
          <mxGeometry width="50" height="50" relative="1" as="geometry">
            <mxPoint x="940" y="470" as="sourcePoint" />
            <mxPoint x="940" y="400" as="targetPoint" />
          </mxGeometry>
        </mxCell>
        <mxCell id="0uLxgeupM7HnFfJnQQ7k-2" value="FUNDAMENTAL ISSUE IS TENSION BETWEEN" style="text;html=1;align=center;verticalAlign=middle;whiteSpace=wrap;rounded=0;" vertex="1" parent="1">
          <mxGeometry x="910" y="340" width="60" height="30" as="geometry" />
        </mxCell>
        <mxCell id="0uLxgeupM7HnFfJnQQ7k-3" value="" style="shape=flexArrow;endArrow=classic;html=1;rounded=0;" edge="1" parent="1">
          <mxGeometry width="50" height="50" relative="1" as="geometry">
            <mxPoint x="860" y="320" as="sourcePoint" />
            <mxPoint x="790" y="270" as="targetPoint" />
          </mxGeometry>
        </mxCell>
        <mxCell id="0uLxgeupM7HnFfJnQQ7k-4" value="" style="shape=flexArrow;endArrow=classic;html=1;rounded=0;" edge="1" parent="1">
          <mxGeometry width="50" height="50" relative="1" as="geometry">
            <mxPoint x="1010" y="330" as="sourcePoint" />
            <mxPoint x="1070" y="270" as="targetPoint" />
          </mxGeometry>
        </mxCell>
        <mxCell id="0uLxgeupM7HnFfJnQQ7k-5" value="OPTIMIZATION" style="rounded=1;whiteSpace=wrap;html=1;" vertex="1" parent="1">
          <mxGeometry x="650" y="200" width="120" height="60" as="geometry" />
        </mxCell>
        <mxCell id="0uLxgeupM7HnFfJnQQ7k-6" value="GENERALIZATION" style="rounded=1;whiteSpace=wrap;html=1;" vertex="1" parent="1">
          <mxGeometry x="1080" y="200" width="120" height="60" as="geometry" />
        </mxCell>
        <mxCell id="0uLxgeupM7HnFfJnQQ7k-7" value="" style="curved=1;endArrow=classic;html=1;rounded=0;exitX=0;exitY=0.5;exitDx=0;exitDy=0;" edge="1" parent="1" source="0uLxgeupM7HnFfJnQQ7k-5">
          <mxGeometry width="50" height="50" relative="1" as="geometry">
            <mxPoint x="580" y="230" as="sourcePoint" />
            <mxPoint x="550" y="170" as="targetPoint" />
            <Array as="points">
              <mxPoint x="630" y="230" />
              <mxPoint x="550" y="210" />
            </Array>
          </mxGeometry>
        </mxCell>
        <mxCell id="0uLxgeupM7HnFfJnQQ7k-8" value="&lt;b&gt;Learning &lt;/b&gt;in&lt;br&gt;&lt;b&gt;machine learning&lt;/b&gt;" style="ellipse;shape=cloud;whiteSpace=wrap;html=1;" vertex="1" parent="1">
          <mxGeometry x="450" y="80" width="160" height="90" as="geometry" />
        </mxCell>
        <mxCell id="0uLxgeupM7HnFfJnQQ7k-9" value="is the" style="text;html=1;align=center;verticalAlign=middle;whiteSpace=wrap;rounded=0;" vertex="1" parent="1">
          <mxGeometry x="570" y="190" width="60" height="30" as="geometry" />
        </mxCell>
        <mxCell id="0uLxgeupM7HnFfJnQQ7k-10" value="" style="endArrow=classic;html=1;rounded=0;fillColor=#f8cecc;strokeColor=#b85450;" edge="1" parent="1">
          <mxGeometry relative="1" as="geometry">
            <mxPoint x="1220" y="240" as="sourcePoint" />
            <mxPoint x="1340" y="240" as="targetPoint" />
          </mxGeometry>
        </mxCell>
        <mxCell id="0uLxgeupM7HnFfJnQQ7k-11" value="&lt;b&gt;done too well&lt;/b&gt;" style="edgeLabel;resizable=0;html=1;;align=center;verticalAlign=middle;" connectable="0" vertex="1" parent="0uLxgeupM7HnFfJnQQ7k-10">
          <mxGeometry relative="1" as="geometry" />
        </mxCell>
        <mxCell id="0uLxgeupM7HnFfJnQQ7k-12" value="&lt;font style=&quot;color: rgb(255, 51, 51);&quot;&gt;Overfitting&lt;/font&gt;" style="shape=hexagon;perimeter=hexagonPerimeter2;whiteSpace=wrap;html=1;fixedSize=1;" vertex="1" parent="1">
          <mxGeometry x="1370" y="200" width="80" height="70" as="geometry" />
        </mxCell>
        <mxCell id="0uLxgeupM7HnFfJnQQ7k-13" value="" style="endArrow=none;dashed=1;html=1;dashPattern=1 3;strokeWidth=2;rounded=0;entryX=0.25;entryY=1;entryDx=0;entryDy=0;" edge="1" parent="1" target="0uLxgeupM7HnFfJnQQ7k-14">
          <mxGeometry width="50" height="50" relative="1" as="geometry">
            <mxPoint x="1200" y="200" as="sourcePoint" />
            <mxPoint x="1250" y="150" as="targetPoint" />
          </mxGeometry>
        </mxCell>
        <mxCell id="0uLxgeupM7HnFfJnQQ7k-14" value="Progress to be made" style="text;html=1;align=center;verticalAlign=middle;whiteSpace=wrap;rounded=0;" vertex="1" parent="1">
          <mxGeometry x="1240" y="120" width="60" height="30" as="geometry" />
        </mxCell>
        <mxCell id="0uLxgeupM7HnFfJnQQ7k-15" value="" style="endArrow=none;dashed=1;html=1;dashPattern=1 3;strokeWidth=2;rounded=0;" edge="1" parent="1">
          <mxGeometry width="50" height="50" relative="1" as="geometry">
            <mxPoint x="1310" y="130" as="sourcePoint" />
            <mxPoint x="1380" y="130" as="targetPoint" />
          </mxGeometry>
        </mxCell>
        <mxCell id="0uLxgeupM7HnFfJnQQ7k-16" value="Underfitting" style="shape=step;perimeter=stepPerimeter;whiteSpace=wrap;html=1;fixedSize=1;fillColor=#fff2cc;strokeColor=#d6b656;" vertex="1" parent="1">
          <mxGeometry x="1370" y="90" width="120" height="80" as="geometry" />
        </mxCell>
        <mxCell id="0uLxgeupM7HnFfJnQQ7k-17" value="" style="edgeStyle=isometricEdgeStyle;endArrow=none;html=1;rounded=0;" edge="1" parent="1">
          <mxGeometry width="50" height="100" relative="1" as="geometry">
            <mxPoint x="1010" y="540" as="sourcePoint" />
            <mxPoint x="1060" y="440" as="targetPoint" />
          </mxGeometry>
        </mxCell>
        <mxCell id="0uLxgeupM7HnFfJnQQ7k-18" value="" style="edgeStyle=isometricEdgeStyle;endArrow=none;html=1;rounded=0;elbow=vertical;" edge="1" parent="1">
          <mxGeometry width="50" height="100" relative="1" as="geometry">
            <mxPoint x="1120" y="500" as="sourcePoint" />
            <mxPoint x="1060" y="440" as="targetPoint" />
            <Array as="points">
              <mxPoint x="1100" y="470" />
            </Array>
          </mxGeometry>
        </mxCell>
        <mxCell id="0uLxgeupM7HnFfJnQQ7k-21" value="NOISY" style="text;html=1;align=center;verticalAlign=middle;whiteSpace=wrap;rounded=0;rotation=0;fontFamily=Comic Sans MS;" vertex="1" parent="1">
          <mxGeometry x="990" y="430" width="60" height="30" as="geometry" />
        </mxCell>
        <mxCell id="0uLxgeupM7HnFfJnQQ7k-24" value="&lt;font face=&quot;Comic Sans MS&quot;&gt;FEATURES&lt;/font&gt;" style="text;html=1;align=center;verticalAlign=middle;whiteSpace=wrap;rounded=0;" vertex="1" parent="1">
          <mxGeometry x="1020" y="460" width="60" height="30" as="geometry" />
        </mxCell>
        <mxCell id="0uLxgeupM7HnFfJnQQ7k-25" value="" style="edgeStyle=orthogonalEdgeStyle;sourcePerimeterSpacing=0;targetPerimeterSpacing=0;startArrow=none;endArrow=none;rounded=0;targetPortConstraint=eastwest;sourcePortConstraint=northsouth;curved=0;rounded=0;" edge="1" parent="1" source="0uLxgeupM7HnFfJnQQ7k-27">
          <mxGeometry relative="1" as="geometry">
            <mxPoint x="1160" y="500" as="targetPoint" />
          </mxGeometry>
        </mxCell>
        <mxCell id="0uLxgeupM7HnFfJnQQ7k-26" value="" style="edgeStyle=orthogonalEdgeStyle;sourcePerimeterSpacing=0;targetPerimeterSpacing=0;startArrow=none;endArrow=none;rounded=0;targetPortConstraint=eastwest;sourcePortConstraint=northsouth;curved=0;rounded=0;" edge="1" parent="1" source="0uLxgeupM7HnFfJnQQ7k-28">
          <mxGeometry relative="1" as="geometry">
            <mxPoint x="1161" y="500" as="targetPoint" />
          </mxGeometry>
        </mxCell>
        <mxCell id="0uLxgeupM7HnFfJnQQ7k-27" value="mislabeled examples" style="whiteSpace=wrap;html=1;align=center;verticalAlign=middle;treeFolding=1;treeMoving=1;direction=west;" vertex="1" parent="1">
          <mxGeometry x="1050" y="540" width="100" height="60" as="geometry" />
        </mxCell>
        <mxCell id="0uLxgeupM7HnFfJnQQ7k-28" value="Ambiguous features" style="whiteSpace=wrap;html=1;align=center;verticalAlign=middle;treeFolding=1;treeMoving=1;direction=west;" vertex="1" parent="1">
          <mxGeometry x="1170" y="540" width="100" height="60" as="geometry" />
        </mxCell>
        <mxCell id="0uLxgeupM7HnFfJnQQ7k-29" value="" style="endArrow=classic;html=1;rounded=0;" edge="1" parent="1">
          <mxGeometry relative="1" as="geometry">
            <mxPoint x="1060" y="440" as="sourcePoint" />
            <mxPoint x="1350" y="290" as="targetPoint" />
          </mxGeometry>
        </mxCell>
        <mxCell id="0uLxgeupM7HnFfJnQQ7k-30" value="&lt;font style=&quot;color: rgb(255, 51, 51);&quot;&gt;Inevitably leads to&lt;/font&gt;" style="edgeLabel;resizable=0;html=1;;align=center;verticalAlign=middle;" connectable="0" vertex="1" parent="0uLxgeupM7HnFfJnQQ7k-29">
          <mxGeometry relative="1" as="geometry" />
        </mxCell>
        <mxCell id="0uLxgeupM7HnFfJnQQ7k-31" value="" style="curved=1;endArrow=classic;html=1;rounded=0;" edge="1" parent="1">
          <mxGeometry width="50" height="50" relative="1" as="geometry">
            <mxPoint x="1160" y="500" as="sourcePoint" />
            <mxPoint x="1220" y="430" as="targetPoint" />
            <Array as="points">
              <mxPoint x="1220" y="480" />
              <mxPoint x="1170" y="430" />
            </Array>
          </mxGeometry>
        </mxCell>
        <mxCell id="0uLxgeupM7HnFfJnQQ7k-32" value="&lt;font style=&quot;color: rgb(255, 51, 51);&quot;&gt;spurious correlations&lt;/font&gt;" style="text;html=1;align=center;verticalAlign=middle;whiteSpace=wrap;rounded=0;" vertex="1" parent="1">
          <mxGeometry x="1240" y="410" width="60" height="30" as="geometry" />
        </mxCell>
        <mxCell id="0uLxgeupM7HnFfJnQQ7k-33" value="" style="curved=1;endArrow=classic;html=1;rounded=0;" edge="1" parent="1">
          <mxGeometry width="50" height="50" relative="1" as="geometry">
            <mxPoint x="1310" y="420" as="sourcePoint" />
            <mxPoint x="1410" y="290" as="targetPoint" />
            <Array as="points">
              <mxPoint x="1360" y="420" />
              <mxPoint x="1310" y="370" />
              <mxPoint x="1410" y="330" />
            </Array>
          </mxGeometry>
        </mxCell>
        <mxCell id="0uLxgeupM7HnFfJnQQ7k-34" value="" style="endArrow=classic;html=1;rounded=0;" edge="1" parent="1">
          <mxGeometry relative="1" as="geometry">
            <mxPoint x="1250" y="500" as="sourcePoint" />
            <mxPoint x="1420" y="500" as="targetPoint" />
          </mxGeometry>
        </mxCell>
        <mxCell id="0uLxgeupM7HnFfJnQQ7k-35" value="feature selection" style="edgeLabel;resizable=0;html=1;;align=center;verticalAlign=middle;" connectable="0" vertex="1" parent="0uLxgeupM7HnFfJnQQ7k-34">
          <mxGeometry relative="1" as="geometry" />
        </mxCell>
        <mxCell id="0uLxgeupM7HnFfJnQQ7k-37" value="Filters out white noise" style="rounded=1;whiteSpace=wrap;html=1;" vertex="1" parent="1">
          <mxGeometry x="1420" y="470" width="120" height="60" as="geometry" />
        </mxCell>
        <mxCell id="0uLxgeupM7HnFfJnQQ7k-38" value="&lt;b&gt;Manifold Hypothesis&lt;/b&gt;" style="whiteSpace=wrap;html=1;shape=partialRectangle;top=0;left=0;bottom=1;right=0;points=[[0,1],[1,1]];fillColor=none;align=center;verticalAlign=bottom;routingCenterY=0.5;snapToPoint=1;recursiveResize=0;autosize=1;treeFolding=1;treeMoving=1;newEdgeStyle={&quot;edgeStyle&quot;:&quot;entityRelationEdgeStyle&quot;,&quot;startArrow&quot;:&quot;none&quot;,&quot;endArrow&quot;:&quot;none&quot;,&quot;segment&quot;:10,&quot;curved&quot;:1,&quot;sourcePerimeterSpacing&quot;:0,&quot;targetPerimeterSpacing&quot;:0};" vertex="1" parent="1">
          <mxGeometry x="980" y="615" width="160" height="30" as="geometry" />
        </mxCell>
        <mxCell id="0uLxgeupM7HnFfJnQQ7k-39" value="" style="edgeStyle=entityRelationEdgeStyle;startArrow=none;endArrow=none;segment=10;curved=1;sourcePerimeterSpacing=0;targetPerimeterSpacing=0;rounded=0;exitX=0.5;exitY=1;exitDx=0;exitDy=0;" edge="1" target="0uLxgeupM7HnFfJnQQ7k-38" parent="1" source="2c924340bb9dbf6c-4">
          <mxGeometry relative="1" as="geometry">
            <mxPoint x="980" y="665" as="sourcePoint" />
          </mxGeometry>
        </mxCell>
        <mxCell id="0uLxgeupM7HnFfJnQQ7k-40" value="Natural data lies on low-dimensional manifold within high space&lt;div&gt;&lt;br&gt;&lt;/div&gt;" style="shape=offPageConnector;whiteSpace=wrap;html=1;" vertex="1" parent="1">
          <mxGeometry x="990" y="650" width="150" height="80" as="geometry" />
        </mxCell>
        <mxCell id="0uLxgeupM7HnFfJnQQ7k-41" value="" style="endArrow=classic;html=1;rounded=0;" edge="1" parent="1">
          <mxGeometry relative="1" as="geometry">
            <mxPoint x="1160" y="680" as="sourcePoint" />
            <mxPoint x="1260" y="680" as="targetPoint" />
          </mxGeometry>
        </mxCell>
        <mxCell id="0uLxgeupM7HnFfJnQQ7k-42" value="Make sense&lt;div&gt;of&lt;/div&gt;" style="edgeLabel;resizable=0;html=1;;align=center;verticalAlign=middle;" connectable="0" vertex="1" parent="0uLxgeupM7HnFfJnQQ7k-41">
          <mxGeometry relative="1" as="geometry" />
        </mxCell>
        <mxCell id="0uLxgeupM7HnFfJnQQ7k-44" value="&lt;i&gt;totality of space&lt;/i&gt;" style="shape=display;whiteSpace=wrap;html=1;" vertex="1" parent="1">
          <mxGeometry x="1260" y="660" width="80" height="40" as="geometry" />
        </mxCell>
        <mxCell id="0uLxgeupM7HnFfJnQQ7k-45" value="" style="endArrow=classic;html=1;rounded=0;" edge="1" parent="1">
          <mxGeometry relative="1" as="geometry">
            <mxPoint x="1340" y="680" as="sourcePoint" />
            <mxPoint x="1440" y="680" as="targetPoint" />
          </mxGeometry>
        </mxCell>
        <mxCell id="0uLxgeupM7HnFfJnQQ7k-46" value="using" style="edgeLabel;resizable=0;html=1;;align=center;verticalAlign=middle;" connectable="0" vertex="1" parent="0uLxgeupM7HnFfJnQQ7k-45">
          <mxGeometry relative="1" as="geometry" />
        </mxCell>
        <mxCell id="0uLxgeupM7HnFfJnQQ7k-47" value="a &lt;i&gt;sample &lt;/i&gt;of space" style="shape=display;whiteSpace=wrap;html=1;" vertex="1" parent="1">
          <mxGeometry x="1440" y="660" width="80" height="40" as="geometry" />
        </mxCell>
        <mxCell id="0uLxgeupM7HnFfJnQQ7k-48" value="" style="endArrow=classic;html=1;rounded=0;" edge="1" parent="1" target="0uLxgeupM7HnFfJnQQ7k-50">
          <mxGeometry relative="1" as="geometry">
            <mxPoint x="939.38" y="590" as="sourcePoint" />
            <mxPoint x="939.38" y="770" as="targetPoint" />
            <Array as="points">
              <mxPoint x="910" y="680" />
            </Array>
          </mxGeometry>
        </mxCell>
        <mxCell id="0uLxgeupM7HnFfJnQQ7k-49" value="&lt;font style=&quot;color: rgb(0, 153, 0);&quot;&gt;Why deep learning works?&lt;/font&gt;" style="edgeLabel;resizable=0;html=1;;align=center;verticalAlign=middle;" connectable="0" vertex="1" parent="0uLxgeupM7HnFfJnQQ7k-48">
          <mxGeometry relative="1" as="geometry" />
        </mxCell>
        <mxCell id="0uLxgeupM7HnFfJnQQ7k-50" value="Train on &lt;b&gt;dense sample&lt;/b&gt;" style="ellipse;whiteSpace=wrap;html=1;align=center;newEdgeStyle={&quot;edgeStyle&quot;:&quot;entityRelationEdgeStyle&quot;,&quot;startArrow&quot;:&quot;none&quot;,&quot;endArrow&quot;:&quot;none&quot;,&quot;segment&quot;:10,&quot;curved&quot;:1,&quot;sourcePerimeterSpacing&quot;:0,&quot;targetPerimeterSpacing&quot;:0};treeFolding=1;treeMoving=1;" vertex="1" parent="1">
          <mxGeometry x="870" y="740" width="119.38" height="50" as="geometry" />
        </mxCell>
        <mxCell id="0uLxgeupM7HnFfJnQQ7k-51" value="" style="endArrow=classic;html=1;rounded=0;" edge="1" parent="1">
          <mxGeometry relative="1" as="geometry">
            <mxPoint x="1000" y="770" as="sourcePoint" />
            <mxPoint x="1100" y="770" as="targetPoint" />
          </mxGeometry>
        </mxCell>
        <mxCell id="0uLxgeupM7HnFfJnQQ7k-52" value="&lt;b&gt;NOT ON&lt;/b&gt;" style="edgeLabel;resizable=0;html=1;;align=center;verticalAlign=middle;" connectable="0" vertex="1" parent="0uLxgeupM7HnFfJnQQ7k-51">
          <mxGeometry relative="1" as="geometry" />
        </mxCell>
        <mxCell id="0uLxgeupM7HnFfJnQQ7k-53" value="&lt;b&gt;sparse&lt;/b&gt;&lt;div&gt;&lt;b&gt;distributions&lt;/b&gt;&lt;/div&gt;" style="whiteSpace=wrap;html=1;rounded=1;arcSize=50;align=center;verticalAlign=middle;strokeWidth=1;autosize=1;spacing=4;treeFolding=1;treeMoving=1;newEdgeStyle={&quot;edgeStyle&quot;:&quot;entityRelationEdgeStyle&quot;,&quot;startArrow&quot;:&quot;none&quot;,&quot;endArrow&quot;:&quot;none&quot;,&quot;segment&quot;:10,&quot;curved&quot;:1,&quot;sourcePerimeterSpacing&quot;:0,&quot;targetPerimeterSpacing&quot;:0};" vertex="1" parent="1">
          <mxGeometry x="1120" y="718" width="120" height="50" as="geometry" />
        </mxCell>
        <mxCell id="0uLxgeupM7HnFfJnQQ7k-54" value="" style="edgeStyle=entityRelationEdgeStyle;startArrow=none;endArrow=none;segment=10;curved=1;sourcePerimeterSpacing=0;targetPerimeterSpacing=0;rounded=0;" edge="1" target="0uLxgeupM7HnFfJnQQ7k-53" parent="1">
          <mxGeometry relative="1" as="geometry">
            <mxPoint x="1100" y="770" as="sourcePoint" />
          </mxGeometry>
        </mxCell>
        <mxCell id="0uLxgeupM7HnFfJnQQ7k-55" value="Fight overfitting with" style="whiteSpace=wrap;html=1;shape=partialRectangle;top=0;left=0;bottom=1;right=0;points=[[0,1],[1,1]];fillColor=none;align=center;verticalAlign=bottom;routingCenterY=0.5;snapToPoint=1;recursiveResize=0;autosize=1;treeFolding=1;treeMoving=1;newEdgeStyle={&quot;edgeStyle&quot;:&quot;entityRelationEdgeStyle&quot;,&quot;startArrow&quot;:&quot;none&quot;,&quot;endArrow&quot;:&quot;none&quot;,&quot;segment&quot;:10,&quot;curved&quot;:1,&quot;sourcePerimeterSpacing&quot;:0,&quot;targetPerimeterSpacing&quot;:0};direction=east;" vertex="1" parent="1">
          <mxGeometry x="515" y="1010" width="150" height="30" as="geometry" />
        </mxCell>
        <mxCell id="0uLxgeupM7HnFfJnQQ7k-57" value="&lt;i&gt;Regularization&lt;/i&gt;" style="ellipse;whiteSpace=wrap;html=1;align=center;newEdgeStyle={&quot;edgeStyle&quot;:&quot;entityRelationEdgeStyle&quot;,&quot;startArrow&quot;:&quot;none&quot;,&quot;endArrow&quot;:&quot;none&quot;,&quot;segment&quot;:10,&quot;curved&quot;:1,&quot;sourcePerimeterSpacing&quot;:0,&quot;targetPerimeterSpacing&quot;:0};treeFolding=1;treeMoving=1;" vertex="1" parent="1">
          <mxGeometry x="790" y="1020" width="100" height="40" as="geometry" />
        </mxCell>
        <mxCell id="0uLxgeupM7HnFfJnQQ7k-58" value="" style="endArrow=classic;html=1;rounded=0;exitX=0;exitY=0.667;exitDx=0;exitDy=0;exitPerimeter=0;" edge="1" parent="1" source="2c924340bb9dbf6c-4">
          <mxGeometry relative="1" as="geometry">
            <mxPoint x="700" y="539.05" as="sourcePoint" />
            <mxPoint x="670" y="540" as="targetPoint" />
          </mxGeometry>
        </mxCell>
        <mxCell id="0uLxgeupM7HnFfJnQQ7k-59" value="&lt;font style=&quot;font-size: 15px;&quot;&gt;EVAL&lt;/font&gt;" style="edgeLabel;resizable=0;html=1;;align=center;verticalAlign=middle;" connectable="0" vertex="1" parent="0uLxgeupM7HnFfJnQQ7k-58">
          <mxGeometry relative="1" as="geometry" />
        </mxCell>
        <mxCell id="0uLxgeupM7HnFfJnQQ7k-61" value="" style="curved=1;endArrow=classic;html=1;rounded=0;" edge="1" parent="1" source="2c924340bb9dbf6c-4">
          <mxGeometry width="50" height="50" relative="1" as="geometry">
            <mxPoint x="780" y="530" as="sourcePoint" />
            <mxPoint x="740" y="430" as="targetPoint" />
            <Array as="points">
              <mxPoint x="780" y="500" />
              <mxPoint x="810" y="500" />
              <mxPoint x="730" y="450" />
            </Array>
          </mxGeometry>
        </mxCell>
        <mxCell id="0uLxgeupM7HnFfJnQQ7k-63" value="&lt;b&gt;Hyperparameters&lt;/b&gt;" style="swimlane;fontStyle=0;childLayout=stackLayout;horizontal=1;startSize=30;horizontalStack=0;resizeParent=1;resizeParentMax=0;resizeLast=0;collapsible=1;marginBottom=0;whiteSpace=wrap;html=1;" vertex="1" parent="1">
          <mxGeometry x="700" y="340" width="140" height="90" as="geometry" />
        </mxCell>
        <mxCell id="0uLxgeupM7HnFfJnQQ7k-64" value="Number of layers" style="text;strokeColor=none;fillColor=none;align=left;verticalAlign=middle;spacingLeft=4;spacingRight=4;overflow=hidden;points=[[0,0.5],[1,0.5]];portConstraint=eastwest;rotatable=0;whiteSpace=wrap;html=1;" vertex="1" parent="0uLxgeupM7HnFfJnQQ7k-63">
          <mxGeometry y="30" width="140" height="30" as="geometry" />
        </mxCell>
        <mxCell id="0uLxgeupM7HnFfJnQQ7k-65" value="size of layers" style="text;strokeColor=none;fillColor=none;align=left;verticalAlign=middle;spacingLeft=4;spacingRight=4;overflow=hidden;points=[[0,0.5],[1,0.5]];portConstraint=eastwest;rotatable=0;whiteSpace=wrap;html=1;" vertex="1" parent="0uLxgeupM7HnFfJnQQ7k-63">
          <mxGeometry y="60" width="140" height="30" as="geometry" />
        </mxCell>
        <mxCell id="0uLxgeupM7HnFfJnQQ7k-68" value="&lt;b&gt;Parameters&lt;/b&gt;" style="swimlane;fontStyle=0;childLayout=stackLayout;horizontal=1;startSize=30;horizontalStack=0;resizeParent=1;resizeParentMax=0;resizeLast=0;collapsible=1;marginBottom=0;whiteSpace=wrap;html=1;" vertex="1" parent="1">
          <mxGeometry x="450" y="350" width="140" height="60" as="geometry" />
        </mxCell>
        <mxCell id="0uLxgeupM7HnFfJnQQ7k-69" value="Model weights" style="text;strokeColor=none;fillColor=none;align=left;verticalAlign=middle;spacingLeft=4;spacingRight=4;overflow=hidden;points=[[0,0.5],[1,0.5]];portConstraint=eastwest;rotatable=0;whiteSpace=wrap;html=1;" vertex="1" parent="0uLxgeupM7HnFfJnQQ7k-68">
          <mxGeometry y="30" width="140" height="30" as="geometry" />
        </mxCell>
        <mxCell id="0uLxgeupM7HnFfJnQQ7k-72" value="&lt;font style=&quot;font-size: 23px;&quot;&gt;&lt;b&gt;VS&lt;/b&gt;&lt;/font&gt;" style="text;html=1;align=center;verticalAlign=middle;whiteSpace=wrap;rounded=0;" vertex="1" parent="1">
          <mxGeometry x="610" y="370" width="60" height="30" as="geometry" />
        </mxCell>
        <mxCell id="0uLxgeupM7HnFfJnQQ7k-73" value="" style="curved=1;endArrow=classic;html=1;rounded=0;entryX=0.989;entryY=1.106;entryDx=0;entryDy=0;entryPerimeter=0;" edge="1" parent="1" target="0uLxgeupM7HnFfJnQQ7k-69">
          <mxGeometry width="50" height="50" relative="1" as="geometry">
            <mxPoint x="790" y="500" as="sourcePoint" />
            <mxPoint x="670" y="450" as="targetPoint" />
            <Array as="points">
              <mxPoint x="670" y="500" />
              <mxPoint x="620" y="450" />
            </Array>
          </mxGeometry>
        </mxCell>
        <mxCell id="0uLxgeupM7HnFfJnQQ7k-74" value="Split" style="swimlane;childLayout=stackLayout;horizontal=1;fillColor=none;horizontalStack=1;resizeParent=1;resizeParentMax=0;resizeLast=0;collapsible=0;strokeColor=none;stackBorder=10;stackSpacing=-12;resizable=1;align=center;points=[];whiteSpace=wrap;html=1;flipH=1;flipV=0;direction=east;" vertex="1" parent="1">
          <mxGeometry x="443" y="480" width="293" height="100" as="geometry" />
        </mxCell>
        <mxCell id="0uLxgeupM7HnFfJnQQ7k-75" value="&lt;font style=&quot;color: rgb(0, 153, 0);&quot;&gt;&lt;b&gt;Testing&lt;/b&gt;&lt;/font&gt;" style="shape=step;perimeter=stepPerimeter;fixedSize=1;points=[];whiteSpace=wrap;html=1;direction=west;" vertex="1" parent="0uLxgeupM7HnFfJnQQ7k-74">
          <mxGeometry x="10" y="33" width="87" height="57" as="geometry" />
        </mxCell>
        <mxCell id="0uLxgeupM7HnFfJnQQ7k-76" value="&lt;font style=&quot;color: rgb(178, 102, 255);&quot;&gt;&lt;b style=&quot;&quot;&gt;Validation&lt;/b&gt;&lt;/font&gt;" style="shape=step;perimeter=stepPerimeter;fixedSize=1;points=[];whiteSpace=wrap;html=1;direction=west;" vertex="1" parent="0uLxgeupM7HnFfJnQQ7k-74">
          <mxGeometry x="85" y="33" width="105" height="57" as="geometry" />
        </mxCell>
        <mxCell id="0uLxgeupM7HnFfJnQQ7k-77" value="&lt;b&gt;&lt;font style=&quot;color: rgb(0, 204, 204);&quot;&gt;Training&lt;/font&gt;&lt;/b&gt;" style="shape=step;perimeter=stepPerimeter;fixedSize=1;points=[];whiteSpace=wrap;html=1;direction=west;" vertex="1" parent="0uLxgeupM7HnFfJnQQ7k-74">
          <mxGeometry x="178" y="33" width="105" height="57" as="geometry" />
        </mxCell>
        <mxCell id="0uLxgeupM7HnFfJnQQ7k-79" value="" style="endArrow=classic;html=1;rounded=0;exitX=0.811;exitY=0.97;exitDx=0;exitDy=0;exitPerimeter=0;" edge="1" parent="1" source="0uLxgeupM7HnFfJnQQ7k-76">
          <mxGeometry relative="1" as="geometry">
            <mxPoint x="410" y="458.95" as="sourcePoint" />
            <mxPoint x="450" y="440" as="targetPoint" />
            <Array as="points">
              <mxPoint x="520" y="450" />
            </Array>
          </mxGeometry>
        </mxCell>
        <mxCell id="0uLxgeupM7HnFfJnQQ7k-80" value="Tuning based on" style="edgeLabel;resizable=0;html=1;;align=center;verticalAlign=middle;" connectable="0" vertex="1" parent="0uLxgeupM7HnFfJnQQ7k-79">
          <mxGeometry relative="1" as="geometry" />
        </mxCell>
        <mxCell id="0uLxgeupM7HnFfJnQQ7k-81" value="&lt;font style=&quot;color: rgb(255, 51, 51);&quot;&gt;Overfitting validation&lt;/font&gt;" style="ellipse;whiteSpace=wrap;html=1;" vertex="1" parent="1">
          <mxGeometry x="350" y="400" width="93" height="60" as="geometry" />
        </mxCell>
        <mxCell id="0uLxgeupM7HnFfJnQQ7k-82" value="" style="endArrow=classic;html=1;rounded=0;exitX=0;exitY=0;exitDx=0;exitDy=0;" edge="1" parent="1" source="0uLxgeupM7HnFfJnQQ7k-63">
          <mxGeometry relative="1" as="geometry">
            <mxPoint x="510" y="280" as="sourcePoint" />
            <mxPoint x="520" y="260" as="targetPoint" />
            <Array as="points">
              <mxPoint x="620" y="290" />
            </Array>
          </mxGeometry>
        </mxCell>
        <mxCell id="0uLxgeupM7HnFfJnQQ7k-83" value="Tuning based on validation" style="edgeLabel;resizable=0;html=1;;align=center;verticalAlign=middle;" connectable="0" vertex="1" parent="0uLxgeupM7HnFfJnQQ7k-82">
          <mxGeometry relative="1" as="geometry" />
        </mxCell>
        <mxCell id="0uLxgeupM7HnFfJnQQ7k-84" value="&lt;i&gt;Information&lt;/i&gt;" style="ellipse;whiteSpace=wrap;html=1;" vertex="1" parent="1">
          <mxGeometry x="440" y="220" width="88" height="30" as="geometry" />
        </mxCell>
        <mxCell id="0uLxgeupM7HnFfJnQQ7k-85" value="&lt;i&gt;&lt;b&gt;Leak&lt;/b&gt;&lt;/i&gt;" style="text;html=1;align=center;verticalAlign=middle;whiteSpace=wrap;rounded=0;" vertex="1" parent="1">
          <mxGeometry x="453" y="250" width="60" height="30" as="geometry" />
        </mxCell>
        <mxCell id="0uLxgeupM7HnFfJnQQ7k-86" value="" style="curved=1;endArrow=classic;html=1;rounded=0;entryX=1.011;entryY=0.131;entryDx=0;entryDy=0;entryPerimeter=0;" edge="1" parent="1" target="0uLxgeupM7HnFfJnQQ7k-88">
          <mxGeometry width="50" height="50" relative="1" as="geometry">
            <mxPoint x="740" y="560" as="sourcePoint" />
            <mxPoint x="410" y="610" as="targetPoint" />
            <Array as="points">
              <mxPoint x="500" y="650" />
              <mxPoint x="450" y="600" />
            </Array>
          </mxGeometry>
        </mxCell>
        <mxCell id="0uLxgeupM7HnFfJnQQ7k-88" value="When evaluating" style="swimlane;fontStyle=0;childLayout=stackLayout;horizontal=1;startSize=26;fillColor=none;horizontalStack=0;resizeParent=1;resizeParentMax=0;resizeLast=0;collapsible=1;marginBottom=0;html=1;" vertex="1" parent="1">
          <mxGeometry x="270" y="590" width="170" height="104" as="geometry" />
        </mxCell>
        <mxCell id="0uLxgeupM7HnFfJnQQ7k-89" value="&lt;b&gt;Data representativeness&lt;/b&gt;" style="text;strokeColor=none;fillColor=none;align=left;verticalAlign=top;spacingLeft=4;spacingRight=4;overflow=hidden;rotatable=0;points=[[0,0.5],[1,0.5]];portConstraint=eastwest;whiteSpace=wrap;html=1;" vertex="1" parent="0uLxgeupM7HnFfJnQQ7k-88">
          <mxGeometry y="26" width="170" height="26" as="geometry" />
        </mxCell>
        <mxCell id="0uLxgeupM7HnFfJnQQ7k-90" value="&lt;b&gt;Arrow of time&lt;/b&gt;" style="text;strokeColor=none;fillColor=none;align=left;verticalAlign=top;spacingLeft=4;spacingRight=4;overflow=hidden;rotatable=0;points=[[0,0.5],[1,0.5]];portConstraint=eastwest;whiteSpace=wrap;html=1;" vertex="1" parent="0uLxgeupM7HnFfJnQQ7k-88">
          <mxGeometry y="52" width="170" height="26" as="geometry" />
        </mxCell>
        <mxCell id="0uLxgeupM7HnFfJnQQ7k-91" value="&lt;b&gt;Redundancy&lt;/b&gt;" style="text;strokeColor=none;fillColor=none;align=left;verticalAlign=top;spacingLeft=4;spacingRight=4;overflow=hidden;rotatable=0;points=[[0,0.5],[1,0.5]];portConstraint=eastwest;whiteSpace=wrap;html=1;" vertex="1" parent="0uLxgeupM7HnFfJnQQ7k-88">
          <mxGeometry y="78" width="170" height="26" as="geometry" />
        </mxCell>
        <mxCell id="0uLxgeupM7HnFfJnQQ7k-92" value="Randomly&lt;div&gt;Shuffle&lt;/div&gt;" style="whiteSpace=wrap;html=1;rounded=1;arcSize=50;align=center;verticalAlign=middle;strokeWidth=1;autosize=1;spacing=4;treeFolding=1;treeMoving=1;newEdgeStyle={&quot;edgeStyle&quot;:&quot;entityRelationEdgeStyle&quot;,&quot;startArrow&quot;:&quot;none&quot;,&quot;endArrow&quot;:&quot;none&quot;,&quot;segment&quot;:10,&quot;curved&quot;:1,&quot;sourcePerimeterSpacing&quot;:0,&quot;targetPerimeterSpacing&quot;:0};" vertex="1" parent="1">
          <mxGeometry x="130" y="538" width="100" height="50" as="geometry" />
        </mxCell>
        <mxCell id="0uLxgeupM7HnFfJnQQ7k-93" value="" style="edgeStyle=entityRelationEdgeStyle;startArrow=none;endArrow=none;segment=10;curved=1;sourcePerimeterSpacing=0;targetPerimeterSpacing=0;rounded=0;exitX=0;exitY=0.5;exitDx=0;exitDy=0;" edge="1" target="0uLxgeupM7HnFfJnQQ7k-92" parent="1" source="0uLxgeupM7HnFfJnQQ7k-89">
          <mxGeometry relative="1" as="geometry">
            <mxPoint x="100" y="590" as="sourcePoint" />
          </mxGeometry>
        </mxCell>
        <mxCell id="0uLxgeupM7HnFfJnQQ7k-94" value="Temporal leak" style="whiteSpace=wrap;html=1;rounded=1;arcSize=50;align=center;verticalAlign=middle;strokeWidth=1;autosize=1;spacing=4;treeFolding=1;treeMoving=1;newEdgeStyle={&quot;edgeStyle&quot;:&quot;entityRelationEdgeStyle&quot;,&quot;startArrow&quot;:&quot;none&quot;,&quot;endArrow&quot;:&quot;none&quot;,&quot;segment&quot;:10,&quot;curved&quot;:1,&quot;sourcePerimeterSpacing&quot;:0,&quot;targetPerimeterSpacing&quot;:0};" vertex="1" parent="1">
          <mxGeometry x="20" y="627" width="120" height="30" as="geometry" />
        </mxCell>
        <mxCell id="0uLxgeupM7HnFfJnQQ7k-95" value="" style="edgeStyle=entityRelationEdgeStyle;startArrow=none;endArrow=none;segment=10;curved=1;sourcePerimeterSpacing=0;targetPerimeterSpacing=0;rounded=0;exitX=0;exitY=0.5;exitDx=0;exitDy=0;" edge="1" target="0uLxgeupM7HnFfJnQQ7k-94" parent="1" source="0uLxgeupM7HnFfJnQQ7k-90">
          <mxGeometry relative="1" as="geometry">
            <mxPoint x="60" y="669" as="sourcePoint" />
          </mxGeometry>
        </mxCell>
        <mxCell id="0uLxgeupM7HnFfJnQQ7k-98" value="dis - joint" style="whiteSpace=wrap;html=1;rounded=1;arcSize=50;align=center;verticalAlign=middle;strokeWidth=1;autosize=1;spacing=4;treeFolding=1;treeMoving=1;newEdgeStyle={&quot;edgeStyle&quot;:&quot;entityRelationEdgeStyle&quot;,&quot;startArrow&quot;:&quot;none&quot;,&quot;endArrow&quot;:&quot;none&quot;,&quot;segment&quot;:10,&quot;curved&quot;:1,&quot;sourcePerimeterSpacing&quot;:0,&quot;targetPerimeterSpacing&quot;:0};" vertex="1" parent="1">
          <mxGeometry x="165" y="713" width="90" height="30" as="geometry" />
        </mxCell>
        <mxCell id="0uLxgeupM7HnFfJnQQ7k-99" value="" style="edgeStyle=entityRelationEdgeStyle;startArrow=none;endArrow=none;segment=10;curved=1;sourcePerimeterSpacing=0;targetPerimeterSpacing=0;rounded=0;exitX=0.187;exitY=1.168;exitDx=0;exitDy=0;exitPerimeter=0;" edge="1" target="0uLxgeupM7HnFfJnQQ7k-98" parent="1" source="0uLxgeupM7HnFfJnQQ7k-91">
          <mxGeometry relative="1" as="geometry">
            <mxPoint x="130" y="755" as="sourcePoint" />
          </mxGeometry>
        </mxCell>
        <mxCell id="0uLxgeupM7HnFfJnQQ7k-100" value="&lt;b&gt;Posterior&lt;/b&gt;" style="text;html=1;align=center;verticalAlign=middle;whiteSpace=wrap;rounded=0;" vertex="1" parent="1">
          <mxGeometry x="165" y="640" width="60" height="30" as="geometry" />
        </mxCell>
        <mxCell id="0uLxgeupM7HnFfJnQQ7k-103" value="" style="endArrow=classic;html=1;rounded=0;" edge="1" parent="1">
          <mxGeometry relative="1" as="geometry">
            <mxPoint x="780" y="200" as="sourcePoint" />
            <mxPoint x="790" y="140" as="targetPoint" />
          </mxGeometry>
        </mxCell>
        <mxCell id="0uLxgeupM7HnFfJnQQ7k-104" value="&lt;i&gt;Gradient&lt;/i&gt;&lt;div&gt;&lt;i&gt;Descent&lt;/i&gt;&lt;/div&gt;" style="edgeLabel;resizable=0;html=1;;align=center;verticalAlign=middle;" connectable="0" vertex="1" parent="0uLxgeupM7HnFfJnQQ7k-103">
          <mxGeometry relative="1" as="geometry" />
        </mxCell>
        <mxCell id="0uLxgeupM7HnFfJnQQ7k-109" value="Tuning" style="swimlane;fontStyle=0;childLayout=stackLayout;horizontal=1;startSize=26;fillColor=none;horizontalStack=0;resizeParent=1;resizeParentMax=0;resizeLast=0;collapsible=1;marginBottom=0;html=1;" vertex="1" parent="1">
          <mxGeometry x="750" width="140" height="130" as="geometry" />
        </mxCell>
        <mxCell id="0uLxgeupM7HnFfJnQQ7k-110" value="Optimizer" style="text;strokeColor=none;fillColor=none;align=left;verticalAlign=top;spacingLeft=4;spacingRight=4;overflow=hidden;rotatable=0;points=[[0,0.5],[1,0.5]];portConstraint=eastwest;whiteSpace=wrap;html=1;" vertex="1" parent="0uLxgeupM7HnFfJnQQ7k-109">
          <mxGeometry y="26" width="140" height="26" as="geometry" />
        </mxCell>
        <mxCell id="0uLxgeupM7HnFfJnQQ7k-111" value="Initial weights" style="text;strokeColor=none;fillColor=none;align=left;verticalAlign=top;spacingLeft=4;spacingRight=4;overflow=hidden;rotatable=0;points=[[0,0.5],[1,0.5]];portConstraint=eastwest;whiteSpace=wrap;html=1;" vertex="1" parent="0uLxgeupM7HnFfJnQQ7k-109">
          <mxGeometry y="52" width="140" height="26" as="geometry" />
        </mxCell>
        <mxCell id="0uLxgeupM7HnFfJnQQ7k-112" value="learning rate" style="text;strokeColor=none;fillColor=none;align=left;verticalAlign=top;spacingLeft=4;spacingRight=4;overflow=hidden;rotatable=0;points=[[0,0.5],[1,0.5]];portConstraint=eastwest;whiteSpace=wrap;html=1;" vertex="1" parent="0uLxgeupM7HnFfJnQQ7k-109">
          <mxGeometry y="78" width="140" height="26" as="geometry" />
        </mxCell>
        <mxCell id="0uLxgeupM7HnFfJnQQ7k-113" value="batch size" style="text;strokeColor=none;fillColor=none;align=left;verticalAlign=top;spacingLeft=4;spacingRight=4;overflow=hidden;rotatable=0;points=[[0,0.5],[1,0.5]];portConstraint=eastwest;whiteSpace=wrap;html=1;" vertex="1" parent="0uLxgeupM7HnFfJnQQ7k-109">
          <mxGeometry y="104" width="140" height="26" as="geometry" />
        </mxCell>
        <mxCell id="0uLxgeupM7HnFfJnQQ7k-114" value="" style="endArrow=classic;html=1;rounded=0;exitX=0.523;exitY=-0.073;exitDx=0;exitDy=0;exitPerimeter=0;" edge="1" parent="1" source="0uLxgeupM7HnFfJnQQ7k-76">
          <mxGeometry relative="1" as="geometry">
            <mxPoint x="530" y="680" as="sourcePoint" />
            <mxPoint x="520" y="730" as="targetPoint" />
          </mxGeometry>
        </mxCell>
        <mxCell id="0uLxgeupM7HnFfJnQQ7k-115" value="NOT improving" style="edgeLabel;resizable=0;html=1;;align=center;verticalAlign=middle;" connectable="0" vertex="1" parent="0uLxgeupM7HnFfJnQQ7k-114">
          <mxGeometry relative="1" as="geometry" />
        </mxCell>
        <mxCell id="0uLxgeupM7HnFfJnQQ7k-117" value="Architecture&lt;div&gt;Priors&lt;/div&gt;" style="html=1;whiteSpace=wrap;aspect=fixed;shape=isoRectangle;" vertex="1" parent="1">
          <mxGeometry x="461.66999999999996" y="730" width="116.67" height="70" as="geometry" />
        </mxCell>
        <mxCell id="0uLxgeupM7HnFfJnQQ7k-118" value="" style="line;strokeWidth=2;direction=south;html=1;" vertex="1" parent="1">
          <mxGeometry x="513" y="800" width="10" height="30" as="geometry" />
        </mxCell>
        <mxCell id="0uLxgeupM7HnFfJnQQ7k-120" value="&lt;i&gt;Capacity&lt;/i&gt;" style="shape=tapeData;whiteSpace=wrap;html=1;perimeter=ellipsePerimeter;" vertex="1" parent="1">
          <mxGeometry x="380.5" y="820" width="119.5" height="30" as="geometry" />
        </mxCell>
        <mxCell id="0uLxgeupM7HnFfJnQQ7k-121" value="improving generalization" style="label;whiteSpace=wrap;html=1;image=img/clipart/Gear_128x128.png" vertex="1" parent="1">
          <mxGeometry x="500" y="820" width="140" height="60" as="geometry" />
        </mxCell>
        <mxCell id="0uLxgeupM7HnFfJnQQ7k-122" value="&lt;b&gt;FEATURE&lt;/b&gt;&lt;div&gt;&lt;b&gt;ENG&lt;/b&gt;&lt;/div&gt;" style="whiteSpace=wrap;html=1;rounded=1;arcSize=50;align=center;verticalAlign=middle;strokeWidth=1;autosize=1;spacing=4;treeFolding=1;treeMoving=1;newEdgeStyle={&quot;edgeStyle&quot;:&quot;entityRelationEdgeStyle&quot;,&quot;startArrow&quot;:&quot;none&quot;,&quot;endArrow&quot;:&quot;none&quot;,&quot;segment&quot;:10,&quot;curved&quot;:1,&quot;sourcePerimeterSpacing&quot;:0,&quot;targetPerimeterSpacing&quot;:0};" vertex="1" parent="1">
          <mxGeometry x="680" y="808" width="100" height="50" as="geometry" />
        </mxCell>
        <mxCell id="0uLxgeupM7HnFfJnQQ7k-123" value="" style="edgeStyle=entityRelationEdgeStyle;startArrow=none;endArrow=none;segment=10;curved=1;sourcePerimeterSpacing=0;targetPerimeterSpacing=0;rounded=0;" edge="1" target="0uLxgeupM7HnFfJnQQ7k-122" parent="1" source="0uLxgeupM7HnFfJnQQ7k-121">
          <mxGeometry relative="1" as="geometry">
            <mxPoint x="650" y="860" as="sourcePoint" />
          </mxGeometry>
        </mxCell>
        <mxCell id="0uLxgeupM7HnFfJnQQ7k-124" value="" style="edgeStyle=orthogonalEdgeStyle;sourcePerimeterSpacing=0;targetPerimeterSpacing=0;startArrow=none;endArrow=none;rounded=0;targetPortConstraint=eastwest;sourcePortConstraint=northsouth;curved=0;rounded=0;" edge="1" target="0uLxgeupM7HnFfJnQQ7k-126" parent="1">
          <mxGeometry relative="1" as="geometry">
            <mxPoint x="731" y="860" as="sourcePoint" />
          </mxGeometry>
        </mxCell>
        <mxCell id="0uLxgeupM7HnFfJnQQ7k-125" value="" style="edgeStyle=orthogonalEdgeStyle;sourcePerimeterSpacing=0;targetPerimeterSpacing=0;startArrow=none;endArrow=none;rounded=0;targetPortConstraint=eastwest;sourcePortConstraint=northsouth;curved=0;rounded=0;" edge="1" target="0uLxgeupM7HnFfJnQQ7k-127" parent="1">
          <mxGeometry relative="1" as="geometry">
            <mxPoint x="731" y="860" as="sourcePoint" />
          </mxGeometry>
        </mxCell>
        <mxCell id="0uLxgeupM7HnFfJnQQ7k-126" value="Good features solve more elegantly" style="whiteSpace=wrap;html=1;align=center;verticalAlign=middle;treeFolding=1;treeMoving=1;" vertex="1" parent="1">
          <mxGeometry x="621" y="900" width="100" height="60" as="geometry" />
        </mxCell>
        <mxCell id="0uLxgeupM7HnFfJnQQ7k-127" value="Solve with FAR less data" style="whiteSpace=wrap;html=1;align=center;verticalAlign=middle;treeFolding=1;treeMoving=1;" vertex="1" parent="1">
          <mxGeometry x="741" y="900" width="100" height="60" as="geometry" />
        </mxCell>
        <mxCell id="0uLxgeupM7HnFfJnQQ7k-128" value="&lt;u&gt;Early Stop&lt;/u&gt;" style="whiteSpace=wrap;html=1;rounded=1;arcSize=50;align=center;verticalAlign=middle;strokeWidth=1;autosize=1;spacing=4;treeFolding=1;treeMoving=1;newEdgeStyle={&quot;edgeStyle&quot;:&quot;entityRelationEdgeStyle&quot;,&quot;startArrow&quot;:&quot;none&quot;,&quot;endArrow&quot;:&quot;none&quot;,&quot;segment&quot;:10,&quot;curved&quot;:1,&quot;sourcePerimeterSpacing&quot;:0,&quot;targetPerimeterSpacing&quot;:0};" vertex="1" parent="1">
          <mxGeometry x="371" y="878" width="100" height="30" as="geometry" />
        </mxCell>
        <mxCell id="0uLxgeupM7HnFfJnQQ7k-129" value="" style="edgeStyle=entityRelationEdgeStyle;startArrow=none;endArrow=none;segment=10;curved=1;sourcePerimeterSpacing=0;targetPerimeterSpacing=0;rounded=0;exitX=0.25;exitY=1;exitDx=0;exitDy=0;" edge="1" target="0uLxgeupM7HnFfJnQQ7k-128" parent="1" source="0uLxgeupM7HnFfJnQQ7k-121">
          <mxGeometry relative="1" as="geometry">
            <mxPoint x="341" y="920" as="sourcePoint" />
            <Array as="points">
              <mxPoint x="510" y="900" />
            </Array>
          </mxGeometry>
        </mxCell>
        <mxCell id="0uLxgeupM7HnFfJnQQ7k-133" value="" style="edgeStyle=orthogonalEdgeStyle;rounded=0;orthogonalLoop=1;jettySize=auto;html=1;entryX=0.318;entryY=-0.087;entryDx=0;entryDy=0;entryPerimeter=0;" edge="1" parent="1" source="0uLxgeupM7HnFfJnQQ7k-121" target="0uLxgeupM7HnFfJnQQ7k-55">
          <mxGeometry relative="1" as="geometry">
            <mxPoint x="570" y="960" as="targetPoint" />
          </mxGeometry>
        </mxCell>
        <mxCell id="0uLxgeupM7HnFfJnQQ7k-134" value="" style="endArrow=classic;html=1;rounded=0;exitX=1;exitY=1;exitDx=0;exitDy=0;" edge="1" parent="1" source="0uLxgeupM7HnFfJnQQ7k-55">
          <mxGeometry width="50" height="50" relative="1" as="geometry">
            <mxPoint x="690" y="1050" as="sourcePoint" />
            <mxPoint x="770" y="1040" as="targetPoint" />
          </mxGeometry>
        </mxCell>
        <mxCell id="0uLxgeupM7HnFfJnQQ7k-139" value="" style="endArrow=classic;html=1;rounded=0;" edge="1" parent="1">
          <mxGeometry relative="1" as="geometry">
            <mxPoint x="890" y="1040" as="sourcePoint" />
            <mxPoint x="1050" y="1040" as="targetPoint" />
          </mxGeometry>
        </mxCell>
        <mxCell id="0uLxgeupM7HnFfJnQQ7k-140" value="SIZE" style="edgeLabel;resizable=0;html=1;;align=center;verticalAlign=middle;" connectable="0" vertex="1" parent="0uLxgeupM7HnFfJnQQ7k-139">
          <mxGeometry relative="1" as="geometry" />
        </mxCell>
        <mxCell id="0uLxgeupM7HnFfJnQQ7k-141" value="NETWORK" style="edgeLabel;resizable=0;html=1;;align=left;verticalAlign=bottom;" connectable="0" vertex="1" parent="0uLxgeupM7HnFfJnQQ7k-139">
          <mxGeometry x="-1" relative="1" as="geometry" />
        </mxCell>
        <mxCell id="0uLxgeupM7HnFfJnQQ7k-143" value="Too much capacity" style="rounded=1;whiteSpace=wrap;html=1;" vertex="1" parent="1">
          <mxGeometry x="1050" y="1000" width="120" height="30" as="geometry" />
        </mxCell>
        <mxCell id="0uLxgeupM7HnFfJnQQ7k-144" value="Not enough" style="rounded=1;whiteSpace=wrap;html=1;" vertex="1" parent="1">
          <mxGeometry x="1050" y="1050" width="120" height="30" as="geometry" />
        </mxCell>
        <mxCell id="0uLxgeupM7HnFfJnQQ7k-145" value="remembers too much" style="whiteSpace=wrap;html=1;rounded=1;arcSize=50;align=center;verticalAlign=middle;strokeWidth=1;autosize=1;spacing=4;treeFolding=1;treeMoving=1;newEdgeStyle={&quot;edgeStyle&quot;:&quot;entityRelationEdgeStyle&quot;,&quot;startArrow&quot;:&quot;none&quot;,&quot;endArrow&quot;:&quot;none&quot;,&quot;segment&quot;:10,&quot;curved&quot;:1,&quot;sourcePerimeterSpacing&quot;:0,&quot;targetPerimeterSpacing&quot;:0};" vertex="1" parent="1">
          <mxGeometry x="1195" y="958" width="160" height="30" as="geometry" />
        </mxCell>
        <mxCell id="0uLxgeupM7HnFfJnQQ7k-146" value="" style="edgeStyle=entityRelationEdgeStyle;startArrow=none;endArrow=none;segment=10;curved=1;sourcePerimeterSpacing=0;targetPerimeterSpacing=0;rounded=0;" edge="1" target="0uLxgeupM7HnFfJnQQ7k-145" parent="1">
          <mxGeometry relative="1" as="geometry">
            <mxPoint x="1170" y="1000" as="sourcePoint" />
          </mxGeometry>
        </mxCell>
        <mxCell id="0uLxgeupM7HnFfJnQQ7k-147" value="starved for&amp;nbsp;&lt;br&gt;resources" style="whiteSpace=wrap;html=1;rounded=1;arcSize=50;align=center;verticalAlign=middle;strokeWidth=1;autosize=1;spacing=4;treeFolding=1;treeMoving=1;newEdgeStyle={&quot;edgeStyle&quot;:&quot;entityRelationEdgeStyle&quot;,&quot;startArrow&quot;:&quot;none&quot;,&quot;endArrow&quot;:&quot;none&quot;,&quot;segment&quot;:10,&quot;curved&quot;:1,&quot;sourcePerimeterSpacing&quot;:0,&quot;targetPerimeterSpacing&quot;:0};" vertex="1" parent="1">
          <mxGeometry x="1200" y="1022" width="100" height="50" as="geometry" />
        </mxCell>
        <mxCell id="0uLxgeupM7HnFfJnQQ7k-148" value="" style="edgeStyle=entityRelationEdgeStyle;startArrow=none;endArrow=none;segment=10;curved=1;sourcePerimeterSpacing=0;targetPerimeterSpacing=0;rounded=0;" edge="1" target="0uLxgeupM7HnFfJnQQ7k-147" parent="1">
          <mxGeometry relative="1" as="geometry">
            <mxPoint x="1170" y="1074" as="sourcePoint" />
          </mxGeometry>
        </mxCell>
        <mxCell id="0uLxgeupM7HnFfJnQQ7k-149" value="" style="edgeStyle=orthogonalEdgeStyle;sourcePerimeterSpacing=0;targetPerimeterSpacing=0;startArrow=none;endArrow=none;rounded=0;targetPortConstraint=eastwest;sourcePortConstraint=northsouth;curved=0;rounded=0;" edge="1" target="0uLxgeupM7HnFfJnQQ7k-151" parent="1">
          <mxGeometry relative="1" as="geometry">
            <mxPoint x="840" y="1060" as="sourcePoint" />
          </mxGeometry>
        </mxCell>
        <mxCell id="0uLxgeupM7HnFfJnQQ7k-150" value="" style="edgeStyle=orthogonalEdgeStyle;sourcePerimeterSpacing=0;targetPerimeterSpacing=0;startArrow=none;endArrow=none;rounded=0;targetPortConstraint=eastwest;sourcePortConstraint=northsouth;curved=0;rounded=0;" edge="1" target="0uLxgeupM7HnFfJnQQ7k-152" parent="1">
          <mxGeometry relative="1" as="geometry">
            <mxPoint x="840" y="1060" as="sourcePoint" />
          </mxGeometry>
        </mxCell>
        <mxCell id="0uLxgeupM7HnFfJnQQ7k-151" value="&lt;b&gt;&lt;font style=&quot;font-size: 14px;&quot;&gt;L1&lt;/font&gt;&lt;/b&gt;&lt;br&gt;&lt;b&gt;norm &lt;/b&gt;of the weights" style="whiteSpace=wrap;html=1;align=center;verticalAlign=middle;treeFolding=1;treeMoving=1;" vertex="1" parent="1">
          <mxGeometry x="730" y="1100" width="100" height="60" as="geometry" />
        </mxCell>
        <mxCell id="0uLxgeupM7HnFfJnQQ7k-152" value="&lt;font style=&quot;font-size: 14px;&quot;&gt;&lt;b&gt;L2&lt;/b&gt;&lt;/font&gt;&lt;div&gt;&lt;font style=&quot;font-size: 14px;&quot;&gt;&lt;i style=&quot;&quot;&gt;weight decay&lt;/i&gt;&lt;/font&gt;&lt;/div&gt;" style="whiteSpace=wrap;html=1;align=center;verticalAlign=middle;treeFolding=1;treeMoving=1;" vertex="1" parent="1">
          <mxGeometry x="850" y="1100" width="100" height="60" as="geometry" />
        </mxCell>
        <mxCell id="0uLxgeupM7HnFfJnQQ7k-153" value="" style="endArrow=classic;html=1;rounded=0;exitX=0.6;exitY=0;exitDx=0;exitDy=0;exitPerimeter=0;entryX=0;entryY=0;entryDx=0;entryDy=0;" edge="1" parent="1" source="0uLxgeupM7HnFfJnQQ7k-57" target="0uLxgeupM7HnFfJnQQ7k-155">
          <mxGeometry relative="1" as="geometry">
            <mxPoint x="870" y="1000" as="sourcePoint" />
            <mxPoint x="1000" y="930" as="targetPoint" />
            <Array as="points">
              <mxPoint x="910" y="930" />
            </Array>
          </mxGeometry>
        </mxCell>
        <mxCell id="0uLxgeupM7HnFfJnQQ7k-154" value="&lt;b&gt;MOST&lt;/b&gt;&lt;br&gt;effective" style="edgeLabel;resizable=0;html=1;;align=center;verticalAlign=middle;" connectable="0" vertex="1" parent="0uLxgeupM7HnFfJnQQ7k-153">
          <mxGeometry relative="1" as="geometry" />
        </mxCell>
        <mxCell id="0uLxgeupM7HnFfJnQQ7k-155" value="&lt;b&gt;&lt;font style=&quot;font-size: 14px;&quot;&gt;Drop out&lt;/font&gt;&lt;/b&gt;&lt;br&gt;some features randomly" style="shape=partialRectangle;whiteSpace=wrap;html=1;bottom=1;right=1;left=1;top=0;fillColor=none;routingCenterX=-0.5;" vertex="1" parent="1">
          <mxGeometry x="950" y="908" width="120" height="60" as="geometry" />
        </mxCell>
        <mxCell id="0uLxgeupM7HnFfJnQQ7k-157" value="" style="endArrow=none;dashed=1;html=1;dashPattern=1 3;strokeWidth=2;rounded=0;" edge="1" parent="1">
          <mxGeometry width="50" height="50" relative="1" as="geometry">
            <mxPoint x="1140" y="910" as="sourcePoint" />
            <mxPoint x="1290" y="910" as="targetPoint" />
          </mxGeometry>
        </mxCell>
        <mxCell id="0uLxgeupM7HnFfJnQQ7k-158" value="" style="endArrow=none;html=1;rounded=0;" edge="1" parent="1">
          <mxGeometry width="50" height="50" relative="1" as="geometry">
            <mxPoint x="1070" y="910" as="sourcePoint" />
            <mxPoint x="1140" y="910" as="targetPoint" />
          </mxGeometry>
        </mxCell>
        <mxCell id="0uLxgeupM7HnFfJnQQ7k-159" value="breaks up happenstance patterns" style="text;html=1;align=center;verticalAlign=middle;whiteSpace=wrap;rounded=0;" vertex="1" parent="1">
          <mxGeometry x="1070" y="878" width="220" height="30" as="geometry" />
        </mxCell>
        <mxCell id="0uLxgeupM7HnFfJnQQ7k-162" value="&lt;i&gt;&lt;font face=&quot;Comic Sans MS&quot;&gt;conspiracies&lt;/font&gt;&lt;/i&gt;" style="shape=display;whiteSpace=wrap;html=1;" vertex="1" parent="1">
          <mxGeometry x="1290" y="900" width="100" height="20" as="geometry" />
        </mxCell>
      </root>
    </mxGraphModel>
  </diagram>
</mxfile>
